<svg width="218" height="30" fill="none" xmlns="http://www.w3.org/2000/svg"><path d="M.87 11.87c0 3.96 2.04 5.94 6.15 5.94 1.77 0 2.85-.12 3.3-.33v4.59c0 .69.24.93.93.93h1.62c.69 0 .93-.24.93-.93V8.36c0-.69-.24-.9-.93-.9h-1.62c-.69 0-.93.21-.93.9v5.85c-.57.27-1.5.42-2.82.42-2.1 0-3.15-.96-3.15-2.85V8.36c0-.69-.24-.9-.93-.9H1.8c-.69 0-.93.21-.93.9v3.51zm16.127-1.74c-.33.6-.15 1.05.51 1.35l1.2.51c.69.24.84.18 1.29-.45.63-.96 1.68-1.44 3.15-1.44 2.16 0 3 1.02 3 2.97v.84c-1.71-.09-2.67-.15-2.88-.15-4.89 0-6.81 1.26-6.81 4.83 0 1.65.48 2.88 1.44 3.66.96.81 2.7 1.2 5.25 1.2 2.4 0 4.2-.27 5.4-.78.84-.36 1.08-.66 1.08-1.71v-7.77c0-4.11-2.13-6.18-6.42-6.18-3.06 0-5.13 1.05-6.21 3.12zm9.15 9.78c0 .21-.12.33-.33.42-.72.15-1.71.24-3 .24-2.19 0-2.82-.66-2.82-2.01 0-1.32.72-1.95 2.88-1.95.09 0 1.17.06 3.27.15v3.15zm6.167-2.61c0 3.93 2.19 6.15 6.63 6.15 3.42 0 5.64-1.32 6.69-3.99.27-.63.06-1.08-.63-1.35l-1.35-.39c-.72-.24-1.05-.12-1.32.6-.51 1.38-1.62 2.07-3.27 2.07-2.13 0-3.27-1.05-3.27-2.94v-4.44c0-1.95 1.08-2.94 3.27-2.94 1.65 0 2.76.66 3.27 2.01.27.72.6.9 1.32.63l1.32-.42c.72-.27.9-.6.66-1.35-.81-2.37-3.03-3.93-6.42-3.93-4.59 0-6.9 2.22-6.9 6.15v4.14zm15.588-9.84c-.69 0-.93.21-.93.9v1.38c0 .69.24.93.93.93h3.93v11.4c0 .69.24.93.93.93h1.62c.69 0 .93-.24.93-.93v-11.4h3.9c.69 0 .93-.24.93-.93V8.36c0-.69-.24-.9-.93-.9h-11.31zm25.045 0c-.69 0-.93.21-.93.9v5.1h-6.27v-5.1c0-.69-.24-.9-.93-.9h-1.65c-.69 0-.9.21-.9.9v13.71c0 .69.21.93.9.93h1.65c.69 0 .93-.24.93-.93V16.7h6.27v5.37c0 .69.24.93.93.93h1.65c.69 0 .9-.24.9-.93V8.36c0-.69-.21-.9-.9-.9h-1.65zm9.5 4.44V8.36c0-.69-.24-.9-.93-.9h-1.65c-.69 0-.9.21-.9.9v13.71c0 .69.21.93.9.93h6.54c3.51 0 5.67-2.1 5.67-5.58 0-3.45-2.16-5.52-5.67-5.52h-3.96zm12-4.44c-.69 0-.93.21-.93.9v13.71c0 .69.24.93.93.93h1.62c.69 0 .93-.24.93-.93V8.36c0-.69-.24-.9-.93-.9h-1.62zm-12 12.42v-4.83h3.54c1.53 0 2.46.93 2.46 2.37 0 1.47-.93 2.46-2.46 2.46h-3.54zM111.99 2.36c.15-.45.09-.63-.39-.84l-1.38-.51c-.39-.09-.63.03-.78.36-.33 1.05-1.05 1.56-2.1 1.56s-1.77-.51-2.1-1.56c-.15-.36-.48-.48-.93-.33l-1.17.48c-.42.15-.57.45-.42.84.63 1.95 2.37 3.09 4.62 3.09 2.28 0 3.96-1.14 4.65-3.09zm-10.62 5.1c-.69 0-.9.21-.9.9v13.71c0 .69.21.93.9.93h1.65c.39 0 .69-.15.93-.48l5.25-7.47c.84-1.23 1.41-2.25 1.74-3.03h.09c-.45 1.53-.66 3-.66 4.41v5.64c0 .69.24.93.93.93h1.65c.69 0 .9-.24.9-.93V8.36c0-.69-.21-.9-.9-.9h-1.65c-.39 0-.69.15-.9.45l-5.31 7.53c-.72 1.05-1.29 2.07-1.68 3.03h-.09c.42-1.5.63-2.97.63-4.38V8.36c0-.69-.24-.9-.93-.9h-1.65zm35.979 0c-.72 0-.93.15-1.29.78l-4.29 7.77-4.35-7.8c-.33-.6-.57-.75-1.32-.75h-1.2c-.84 0-1.02.24-1.02.99v13.62c0 .75.18.93.93.93h1.35c.69 0 .9-.21.9-.93v-5.34c0-1.05-.21-2.55-.6-4.56h.12c.45 1.29.93 2.43 1.5 3.39l2.1 3.6c.33.6.54.72 1.14.72h.84c.6 0 .78-.12 1.14-.69l2.1-3.66c.57-.96 1.08-2.07 1.53-3.33h.12c-.42 1.86-.63 3.33-.63 4.44v5.43c0 .75.18.93.93.93h1.41c.69 0 .93-.21.93-.93V8.45c0-.75-.18-.99-1.02-.99h-1.32zm5.508 2.67c-.33.6-.15 1.05.51 1.35l1.2.51c.69.24.84.18 1.29-.45.63-.96 1.68-1.44 3.15-1.44 2.16 0 3 1.02 3 2.97v.84c-1.71-.09-2.67-.15-2.88-.15-4.89 0-6.81 1.26-6.81 4.83 0 1.65.48 2.88 1.44 3.66.96.81 2.7 1.2 5.25 1.2 2.4 0 4.2-.27 5.4-.78.84-.36 1.08-.66 1.08-1.71v-7.77c0-4.11-2.13-6.18-6.42-6.18-3.06 0-5.13 1.05-6.21 3.12zm9.15 9.78c0 .21-.12.33-.33.42-.72.15-1.71.24-3 .24-2.19 0-2.82-.66-2.82-2.01 0-1.32.72-1.95 2.88-1.95.09 0 1.17.06 3.27.15v3.15zm6.166-2.61c0 3.93 2.19 6.15 6.63 6.15 3.42 0 5.64-1.32 6.69-3.99.27-.63.06-1.08-.63-1.35l-1.35-.39c-.72-.24-1.05-.12-1.32.6-.51 1.38-1.62 2.07-3.27 2.07-2.13 0-3.27-1.05-3.27-2.94v-4.44c0-1.95 1.08-2.94 3.27-2.94 1.65 0 2.76.66 3.27 2.01.27.72.6.9 1.32.63l1.32-.42c.72-.27.9-.6.66-1.35-.81-2.37-3.03-3.93-6.42-3.93-4.59 0-6.9 2.22-6.9 6.15v4.14zm15.588-9.84c-.69 0-.93.21-.93.9v1.38c0 .69.24.93.93.93h3.93v11.4c0 .69.24.93.93.93h1.62c.69 0 .93-.24.93-.93v-11.4h3.9c.69 0 .93-.24.93-.93V8.36c0-.69-.24-.9-.93-.9h-11.31zm13.679 9.57c0 3.93 2.22 6.42 6.9 6.42 3.15 0 5.31-.96 6.48-2.88.45-.69.33-1.17-.36-1.5l-1.05-.57c-.72-.39-1.05-.33-1.53.36-.69 1.05-1.86 1.59-3.54 1.59-2.19 0-3.42-1.05-3.42-3v-1.11h9.06c.9 0 1.35-.42 1.35-1.29v-1.83c0-3.63-2.37-6.21-6.93-6.21-4.53 0-6.96 2.28-6.96 6.48v3.54zm10.41-3.36h-6.93v-.66c0-1.95 1.23-3.06 3.48-3.06 2.28 0 3.45 1.11 3.45 3.06v.66zm7.354-5.79c-.96.39-1.17.75-1.17 1.71v19.08c0 .69.24.93.93.93h1.65c.69 0 .9-.24.9-.93v-5.76c1.38.36 2.43.54 3.15.54 4.47 0 6.69-2.1 6.69-6.27v-4.11c0-3.93-2.1-6.06-6.33-6.06-2.31 0-4.23.3-5.82.87zm8.67 9.18c0 2.13-1.14 3.21-3.45 3.21-.78 0-1.74-.15-2.91-.45v-8.91c0-.18.09-.3.3-.39.78-.21 1.68-.33 2.7-.33 2.25 0 3.36.99 3.36 2.97v3.9z" fill="#fff"/></svg>