<svg width="218" height="30" viewBox="0 0 218 30" fill="none" xmlns="http://www.w3.org/2000/svg">
<path d="M0.87 11.87C0.87 15.83 2.91 17.81 7.02 17.81C8.79 17.81 9.87 17.69 10.32 17.48V22.07C10.32 22.76 10.56 23 11.25 23H12.87C13.56 23 13.8 22.76 13.8 22.07V8.36C13.8 7.67 13.56 7.46 12.87 7.46H11.25C10.56 7.46 10.32 7.67 10.32 8.36V14.21C9.75 14.48 8.82 14.63 7.5 14.63C5.4 14.63 4.35 13.67 4.35 11.78V8.36C4.35 7.67 4.11 7.46 3.42 7.46H1.8C1.11 7.46 0.87 7.67 0.87 8.36V11.87ZM16.9973 10.13C16.6673 10.73 16.8473 11.18 17.5073 11.48L18.7073 11.99C19.3973 12.23 19.5473 12.17 19.9973 11.54C20.6273 10.58 21.6773 10.1 23.1473 10.1C25.3073 10.1 26.1473 11.12 26.1473 13.07V13.91C24.4373 13.82 23.4773 13.76 23.2673 13.76C18.3773 13.76 16.4573 15.02 16.4573 18.59C16.4573 20.24 16.9373 21.47 17.8973 22.25C18.8573 23.06 20.5973 23.45 23.1473 23.45C25.5473 23.45 27.3473 23.18 28.5473 22.67C29.3873 22.31 29.6273 22.01 29.6273 20.96V13.19C29.6273 9.08 27.4973 7.01 23.2073 7.01C20.1473 7.01 18.0773 8.06 16.9973 10.13ZM26.1473 19.91C26.1473 20.12 26.0273 20.24 25.8173 20.33C25.0973 20.48 24.1073 20.57 22.8173 20.57C20.6273 20.57 19.9973 19.91 19.9973 18.56C19.9973 17.24 20.7173 16.61 22.8773 16.61C22.9673 16.61 24.0473 16.67 26.1473 16.76V19.91ZM32.314 17.3C32.314 21.23 34.504 23.45 38.944 23.45C42.364 23.45 44.584 22.13 45.634 19.46C45.904 18.83 45.694 18.38 45.004 18.11L43.654 17.72C42.934 17.48 42.604 17.6 42.334 18.32C41.824 19.7 40.714 20.39 39.064 20.39C36.934 20.39 35.794 19.34 35.794 17.45V13.01C35.794 11.06 36.874 10.07 39.064 10.07C40.714 10.07 41.824 10.73 42.334 12.08C42.604 12.8 42.934 12.98 43.654 12.71L44.974 12.29C45.694 12.02 45.874 11.69 45.634 10.94C44.824 8.57 42.604 7.01 39.214 7.01C34.624 7.01 32.314 9.23 32.314 13.16V17.3ZM47.902 7.46C47.212 7.46 46.972 7.67 46.972 8.36V9.74C46.972 10.43 47.212 10.67 47.902 10.67H51.832V22.07C51.832 22.76 52.072 23 52.762 23H54.382C55.072 23 55.312 22.76 55.312 22.07V10.67H59.212C59.902 10.67 60.142 10.43 60.142 9.74V8.36C60.142 7.67 59.902 7.46 59.212 7.46H47.902ZM72.9473 7.46C72.2573 7.46 72.0173 7.67 72.0173 8.36V13.46H65.7473V8.36C65.7473 7.67 65.5073 7.46 64.8173 7.46H63.1673C62.4773 7.46 62.2673 7.67 62.2673 8.36V22.07C62.2673 22.76 62.4773 23 63.1673 23H64.8173C65.5073 23 65.7473 22.76 65.7473 22.07V16.7H72.0173V22.07C72.0173 22.76 72.2573 23 72.9473 23H74.5973C75.2873 23 75.4973 22.76 75.4973 22.07V8.36C75.4973 7.67 75.2873 7.46 74.5973 7.46H72.9473ZM82.4466 11.9V8.36C82.4466 7.67 82.2066 7.46 81.5166 7.46H79.8666C79.1766 7.46 78.9666 7.67 78.9666 8.36V22.07C78.9666 22.76 79.1766 23 79.8666 23H86.4066C89.9166 23 92.0766 20.9 92.0766 17.42C92.0766 13.97 89.9166 11.9 86.4066 11.9H82.4466ZM94.4466 7.46C93.7566 7.46 93.5166 7.67 93.5166 8.36V22.07C93.5166 22.76 93.7566 23 94.4466 23H96.0666C96.7566 23 96.9966 22.76 96.9966 22.07V8.36C96.9966 7.67 96.7566 7.46 96.0666 7.46H94.4466ZM82.4466 19.88V15.05H85.9866C87.5166 15.05 88.4466 15.98 88.4466 17.42C88.4466 18.89 87.5166 19.88 85.9866 19.88H82.4466ZM111.99 2.36C112.14 1.91 112.08 1.73 111.6 1.52L110.22 1.01C109.83 0.919998 109.59 1.04 109.44 1.37C109.11 2.42 108.39 2.93 107.34 2.93C106.29 2.93 105.57 2.42 105.24 1.37C105.09 1.01 104.76 0.889999 104.31 1.04L103.14 1.52C102.72 1.67 102.57 1.97 102.72 2.36C103.35 4.31 105.09 5.45 107.34 5.45C109.62 5.45 111.3 4.31 111.99 2.36ZM101.37 7.46C100.68 7.46 100.47 7.67 100.47 8.36V22.07C100.47 22.76 100.68 23 101.37 23H103.02C103.41 23 103.71 22.85 103.95 22.52L109.2 15.05C110.04 13.82 110.61 12.8 110.94 12.02H111.03C110.58 13.55 110.37 15.02 110.37 16.43V22.07C110.37 22.76 110.61 23 111.3 23H112.95C113.64 23 113.85 22.76 113.85 22.07V8.36C113.85 7.67 113.64 7.46 112.95 7.46H111.3C110.91 7.46 110.61 7.61 110.4 7.91L105.09 15.44C104.37 16.49 103.8 17.51 103.41 18.47H103.32C103.74 16.97 103.95 15.5 103.95 14.09V8.36C103.95 7.67 103.71 7.46 103.02 7.46H101.37ZM137.349 7.46C136.629 7.46 136.419 7.61 136.059 8.24L131.769 16.01L127.419 8.21C127.089 7.61 126.849 7.46 126.099 7.46H124.899C124.059 7.46 123.879 7.7 123.879 8.45V22.07C123.879 22.82 124.059 23 124.809 23H126.159C126.849 23 127.059 22.79 127.059 22.07V16.73C127.059 15.68 126.849 14.18 126.459 12.17H126.579C127.029 13.46 127.509 14.6 128.079 15.56L130.179 19.16C130.509 19.76 130.719 19.88 131.319 19.88H132.159C132.759 19.88 132.939 19.76 133.299 19.19L135.399 15.53C135.969 14.57 136.479 13.46 136.929 12.2H137.049C136.629 14.06 136.419 15.53 136.419 16.64V22.07C136.419 22.82 136.599 23 137.349 23H138.759C139.449 23 139.689 22.79 139.689 22.07V8.45C139.689 7.7 139.509 7.46 138.669 7.46H137.349ZM142.857 10.13C142.527 10.73 142.707 11.18 143.367 11.48L144.567 11.99C145.257 12.23 145.407 12.17 145.857 11.54C146.487 10.58 147.537 10.1 149.007 10.1C151.167 10.1 152.007 11.12 152.007 13.07V13.91C150.297 13.82 149.337 13.76 149.127 13.76C144.237 13.76 142.317 15.02 142.317 18.59C142.317 20.24 142.797 21.47 143.757 22.25C144.717 23.06 146.457 23.45 149.007 23.45C151.407 23.45 153.207 23.18 154.407 22.67C155.247 22.31 155.487 22.01 155.487 20.96V13.19C155.487 9.08 153.357 7.01 149.067 7.01C146.007 7.01 143.937 8.06 142.857 10.13ZM152.007 19.91C152.007 20.12 151.887 20.24 151.677 20.33C150.957 20.48 149.967 20.57 148.677 20.57C146.487 20.57 145.857 19.91 145.857 18.56C145.857 17.24 146.577 16.61 148.737 16.61C148.827 16.61 149.907 16.67 152.007 16.76V19.91ZM158.173 17.3C158.173 21.23 160.363 23.45 164.803 23.45C168.223 23.45 170.443 22.13 171.493 19.46C171.763 18.83 171.553 18.38 170.863 18.11L169.513 17.72C168.793 17.48 168.463 17.6 168.193 18.32C167.683 19.7 166.573 20.39 164.923 20.39C162.793 20.39 161.653 19.34 161.653 17.45V13.01C161.653 11.06 162.733 10.07 164.923 10.07C166.573 10.07 167.683 10.73 168.193 12.08C168.463 12.8 168.793 12.98 169.513 12.71L170.833 12.29C171.553 12.02 171.733 11.69 171.493 10.94C170.683 8.57 168.463 7.01 165.073 7.01C160.483 7.01 158.173 9.23 158.173 13.16V17.3ZM173.761 7.46C173.071 7.46 172.831 7.67 172.831 8.36V9.74C172.831 10.43 173.071 10.67 173.761 10.67H177.691V22.07C177.691 22.76 177.931 23 178.621 23H180.241C180.931 23 181.171 22.76 181.171 22.07V10.67H185.071C185.761 10.67 186.001 10.43 186.001 9.74V8.36C186.001 7.67 185.761 7.46 185.071 7.46H173.761ZM187.44 17.03C187.44 20.96 189.66 23.45 194.34 23.45C197.49 23.45 199.65 22.49 200.82 20.57C201.27 19.88 201.15 19.4 200.46 19.07L199.41 18.5C198.69 18.11 198.36 18.17 197.88 18.86C197.19 19.91 196.02 20.45 194.34 20.45C192.15 20.45 190.92 19.4 190.92 17.45V16.34H199.98C200.88 16.34 201.33 15.92 201.33 15.05V13.22C201.33 9.59 198.96 7.01 194.4 7.01C189.87 7.01 187.44 9.29 187.44 13.49V17.03ZM197.85 13.67H190.92V13.01C190.92 11.06 192.15 9.95 194.4 9.95C196.68 9.95 197.85 11.06 197.85 13.01V13.67ZM205.204 7.88C204.244 8.27 204.034 8.63 204.034 9.59V28.67C204.034 29.36 204.274 29.6 204.964 29.6H206.614C207.304 29.6 207.514 29.36 207.514 28.67V22.91C208.894 23.27 209.944 23.45 210.664 23.45C215.134 23.45 217.354 21.35 217.354 17.18V13.07C217.354 9.14 215.254 7.01 211.024 7.01C208.714 7.01 206.794 7.31 205.204 7.88ZM213.874 17.06C213.874 19.19 212.734 20.27 210.424 20.27C209.644 20.27 208.684 20.12 207.514 19.82V10.91C207.514 10.73 207.604 10.61 207.814 10.52C208.594 10.31 209.494 10.19 210.514 10.19C212.764 10.19 213.874 11.18 213.874 13.16V17.06Z" fill="white"/>
</svg>
